<?xml version="1.0" encoding="UTF-8"?>
<svg width="859px" height="172px" viewBox="0 0 859 172" version="1.1" xmlns="http://www.w3.org/2000/svg" xmlns:xlink="http://www.w3.org/1999/xlink">
    <!-- Generator: Sketch 49.3 (51167) - http://www.bohemiancoding.com/sketch -->
    <title>logo dark</title>
    <desc>Created with Sketch.</desc>
    <defs></defs>
    <g id="Page-1" stroke="none" stroke-width="1" fill="none" fill-rule="evenodd">
        <g id="logo-dark">
            <g id="Logo">
                <rect id="Rectangle-Copy" stroke="#374050" stroke-width="17" transform="translate(66.468037, 66.468037) rotate(45.000000) translate(-66.468037, -66.468037) " x="27.9680374" y="27.9680374" width="77" height="77"></rect>
                <rect id="Rectangle-2" fill="#F6F8F9" transform="translate(105.000000, 88.000000) rotate(45.000000) translate(-105.000000, -88.000000) " x="87" y="70" width="36" height="36"></rect>
                <rect id="Rectangle" stroke="#374050" stroke-width="17" transform="translate(66.468037, 105.468037) rotate(45.000000) translate(-66.468037, -105.468037) " x="27.9680374" y="66.9680374" width="77" height="77"></rect>
                <rect id="Rectangle-2-Copy" fill="#F6F8F9" transform="translate(34.500000, 89.500000) rotate(45.000000) translate(-34.500000, -89.500000) " x="16" y="71" width="37" height="37"></rect>
                <path d="M16.5759277,71.0463867 L61.369873,115.789551" id="Path-2" stroke="#374050" stroke-width="17"></path>
            </g>
            <path d="M205.8,66.2 C199.399968,62.666649 193.833357,60.9 189.1,60.9 C185.899984,60.9 183.416675,61.533327 181.65,62.8 C179.883325,64.066673 179,65.966654 179,68.5 C179,70.833345 180.283321,72.8833245 182.85,74.65 C185.41668,76.4166755 188.833312,78.099992 193.1,79.7 C196.566684,80.966673 199.533321,82.4166585 202,84.05 C204.466679,85.6833415 206.516659,87.933319 208.15,90.8 C209.783342,93.666681 210.6,97.299978 210.6,101.7 C210.6,105.500019 209.616676,109.01665 207.65,112.25 C205.683324,115.48335 202.800019,118.049991 199,119.95 C195.199981,121.850009 190.666693,122.8 185.4,122.8 C180.999978,122.8 176.633355,122.150007 172.3,120.85 C167.966645,119.549993 163.933352,117.56668 160.2,114.9 L166.6,103.6 C169.133346,105.466676 172.033317,106.999994 175.3,108.2 C178.566683,109.400006 181.499987,110 184.1,110 C187.166682,110 189.833322,109.350007 192.1,108.05 C194.366678,106.749994 195.5,104.633348 195.5,101.7 C195.5,97.899981 191.933369,94.600014 184.8,91.8 C180.599979,90.133325 177.100014,88.533341 174.3,87 C171.499986,85.466659 169.083344,83.266681 167.05,80.4 C165.016657,77.533319 164,73.933355 164,69.6 C164,63.266635 166.083313,58.166686 170.25,54.3 C174.416687,50.433314 179.966632,48.333335 186.9,48 C192.366694,48 196.933315,48.6166605 200.6,49.85 C204.266685,51.0833395 207.833316,52.833322 211.3,55.1 L205.8,66.2 Z M286,125.2 L268.5,81.6 L248.1,125.4 L218.5,48.9 L235.5,48.9 L250,91.5 L261.2,63.4 L255.4,48.9 L269.8,48.9 L286.3,89.8 L298.8,48.9 L314.4,48.9 L286,125.2 Z M341.6,48.4 L341.6,122 L327.1,122 L327.1,48.4 L341.6,48.4 Z M405.2,48.4 L405.2,62.4 L387.3,62.4 L387.3,122 L372.8,122 L372.8,62.4 L355.6,62.4 L355.6,48.4 L405.2,48.4 Z M471.9,115.9 C470.033324,117.433341 467.066687,118.966659 463,120.5 C458.933313,122.033341 454.500024,122.8 449.7,122.8 C442.033295,122.8 435.366695,121.13335 429.7,117.8 C424.033305,114.46665 419.700015,109.983362 416.7,104.35 C413.699985,98.7166385 412.2,92.533367 412.2,85.8 C412.2,78.399963 413.699985,71.800029 416.7,66 C419.700015,60.199971 423.899973,55.6833495 429.3,52.45 C434.700027,49.2166505 440.933298,47.6 448,47.6 C452.466689,47.6 456.599981,48.199994 460.4,49.4 C464.200019,50.600006 467.533319,52.099991 470.4,53.9 L464.7,67.6 C459.433307,63.59998 454.033361,61.6 448.5,61.6 C444.766648,61.6 441.266683,62.633323 438,64.7 C434.733317,66.766677 432.133343,69.5833155 430.2,73.15 C428.266657,76.7166845 427.3,80.666645 427.3,85 C427.3,89.733357 428.199991,93.8833155 430,97.45 C431.800009,101.016684 434.36665,103.79999 437.7,105.8 C441.03335,107.80001 444.933311,108.8 449.4,108.8 C453.000018,108.8 456.233319,108.216672 459.1,107.05 C461.966681,105.883327 464.233325,104.500008 465.9,102.9 L471.9,115.9 Z M548.3,122 L533.8,122 L533.8,92.1 L500.9,92.1 L500.9,122 L486.4,122 L486.4,48.4 L500.9,48.4 L500.9,78.1 L533.8,78.1 L533.8,48.4 L548.3,48.4 L548.3,122 Z M603.7,107.6 L579.3,107.6 L573.3,122 L559,122 L592.2,45.5 L593,45.5 L626.2,122 L609.4,122 L603.7,107.6 Z M598.9,95.4 L591.8,77.5 L584.4,95.4 L598.9,95.4 Z M676.6,122 L661.1,98.6 L651.4,98.6 L651.4,122 L636.9,122 L636.9,48.4 L659.2,48.4 C668.333379,48.4 675.416642,50.6166445 680.45,55.05 C685.483359,59.4833555 688,65.533295 688,73.2 C688,77.733356 687.05001,81.9833135 685.15,85.95 C683.249991,89.9166865 680.333353,93.033322 676.4,95.3 L693.5,122 L676.6,122 Z M651.4,84.6 L661.7,84.6 C665.633353,84.6 668.499991,83.4500115 670.3,81.15 C672.100009,78.8499885 673,76.36668 673,73.7 C673,71.03332 672.233341,68.4833455 670.7,66.05 C669.166659,63.6166545 666.200022,62.4 661.8,62.4 L651.4,62.4 L651.4,84.6 Z M698.5,85.3 C698.5,78.6333 700.183317,72.400029 703.55,66.6 C706.916684,60.799971 711.483305,56.1833505 717.25,52.75 C723.016696,49.3166495 729.266633,47.6 736,47.6 C742.733367,47.6 748.983305,49.3166495 754.75,52.75 C760.516696,56.1833505 765.11665,60.799971 768.55,66.6 C771.983351,72.400029 773.7,78.6333 773.7,85.3 C773.7,92.100034 771.983351,98.366638 768.55,104.1 C765.11665,109.833362 760.516696,114.383317 754.75,117.75 C748.983305,121.116683 742.733367,122.8 736,122.8 C729.199966,122.8 722.933362,121.116683 717.2,117.75 C711.466638,114.383317 706.916684,109.833362 703.55,104.1 C700.183317,98.366638 698.5,92.100034 698.5,85.3 Z M713.5,85.3 C713.5,89.566688 714.516657,93.499982 716.55,97.1 C718.583344,100.700018 721.349983,103.549989 724.85,105.65 C728.350018,107.750011 732.233312,108.8 736.5,108.8 C740.633354,108.8 744.399983,107.750011 747.8,105.65 C751.200017,103.549989 753.866657,100.716684 755.8,97.15 C757.733343,93.5833155 758.7,89.633355 758.7,85.3 C758.7,80.899978 757.70001,76.900018 755.7,73.3 C753.69999,69.699982 750.983351,66.8500105 747.55,64.75 C744.11665,62.6499895 740.300021,61.6 736.1,61.6 C731.899979,61.6 728.083351,62.6499895 724.65,64.75 C721.21665,66.8500105 718.50001,69.699982 716.5,73.3 C714.49999,76.900018 713.5,80.899978 713.5,85.3 Z M783.7,85.3 C783.7,78.6333 785.383317,72.400029 788.75,66.6 C792.116684,60.799971 796.683305,56.1833505 802.45,52.75 C808.216696,49.3166495 814.466633,47.6 821.2,47.6 C827.933367,47.6 834.183305,49.3166495 839.95,52.75 C845.716696,56.1833505 850.31665,60.799971 853.75,66.6 C857.183351,72.400029 858.9,78.6333 858.9,85.3 C858.9,92.100034 857.183351,98.366638 853.75,104.1 C850.31665,109.833362 845.716696,114.383317 839.95,117.75 C834.183305,121.116683 827.933367,122.8 821.2,122.8 C814.399966,122.8 808.133362,121.116683 802.4,117.75 C796.666638,114.383317 792.116684,109.833362 788.75,104.1 C785.383317,98.366638 783.7,92.100034 783.7,85.3 Z M798.7,85.3 C798.7,89.566688 799.716657,93.499982 801.75,97.1 C803.783344,100.700018 806.549983,103.549989 810.05,105.65 C813.550018,107.750011 817.433312,108.8 821.7,108.8 C825.833354,108.8 829.599983,107.750011 833,105.65 C836.400017,103.549989 839.066657,100.716684 841,97.15 C842.933343,93.5833155 843.9,89.633355 843.9,85.3 C843.9,80.899978 842.90001,76.900018 840.9,73.3 C838.89999,69.699982 836.183351,66.8500105 832.75,64.75 C829.31665,62.6499895 825.500021,61.6 821.3,61.6 C817.099979,61.6 813.283351,62.6499895 809.85,64.75 C806.41665,66.8500105 803.70001,69.699982 801.7,73.3 C799.69999,76.900018 798.7,80.899978 798.7,85.3 Z" id="SWITCHAROO" fill="#374050"></path>
        </g>
    </g>
</svg>